<svg xmlns="http://www.w3.org/2000/svg" viewBox="0 0 128 128">
  <defs>
    <linearGradient id="bg" x1="0" x2="1" y1="0" y2="1">
      <stop offset="0%" stop-color="#111827"/>
      <stop offset="100%" stop-color="#1f2937"/>
    </linearGradient>
  </defs>
  <rect width="128" height="128" rx="28" fill="url(#bg)"/>
  <path d="M28 36C28 28 34 22 42 22s14 6 14 14-6 14-14 14S28 44 28 36Zm44 56c0-8 6-14 14-14s14 6 14 14-6 14-14 14-14-6-14-14Z" fill="#f8fafc"/>
  <path d="M41 37c18 0 23 16 31 16 10 0 15-17 25-17" fill="none" stroke="#60a5fa" stroke-linecap="round" stroke-width="12"/>
  <circle cx="42" cy="36" r="14" fill="#f97316"/>
  <circle cx="86" cy="92" r="14" fill="#60a5fa"/>
</svg>
